<svg version="1.1" class="clearos-svg clearfoundation app-vendor-clearfoundation app-free app-category-network app-sub-category-firewall" viewBox="0 0 400 400" preserveAspectRatio="xMinYMin" xmlns="http://www.w3.org/2000/svg" xmlns:xlink= "http://www.w3.org/1999/xlink">
<path fill="#AA0707" d="M91.666,184.647"/>
<path fill="#AA0707" d="M123.245,247.805"/>
<path fill="#AA0707" d="M91.666,184.647"/>
<path fill="#AA0707" d="M123.245,247.805"/>
<g>
	<path fill="#686868" d="M179.721,187.326c-19.237-31.379-11.606-31.119-38.655-79.68c-0.693,38.852-0.401,45.813-6.945,38.576
		c-20.772-23.096-40.962-54.151-43.726-108.271c0,145.068-156.808,209.574-50.647,322.712
		c-0.693-57.624,23.819-115.909,70.065-115.909c41.387,0,69.782,70.364,52.75,117.295
		C243.107,298.173,203.266,222.809,179.721,187.326z"/>
	<polygon fill="#686868" points="338.859,95.488 338.859,50.929 235.171,50.929 235.171,95.488 175.642,95.488 286.387,199.066 
		397.129,95.488 	"/>
	<rect x="230.855" y="228.689" fill="#686868" width="151.832" height="58.646"/>
	<rect x="294.417" y="303.4" fill="#686868" width="88.271" height="58.617"/>
	<path fill="#686868" d="M228.479,303.4c-2.756,19.275-10.566,39.149-26.047,58.617h63.606V303.4H228.479z"/>
</g>
</svg>
